<?xml version="1.0" encoding="utf-8"?>
<!-- Generator: Adobe Illustrator 30.1.0, SVG Export Plug-In . SVG Version: 9.03 Build 0)  -->
<svg version="1.1" baseProfile="basic" id="Layer_1"
	 xmlns="http://www.w3.org/2000/svg" xmlns:xlink="http://www.w3.org/1999/xlink" x="0px" y="0px" width="360px" height="42.2px"
	 viewBox="0 0 360 42.2" xml:space="preserve">
<g>
	<path d="M20,8.2v24.4h-4.1V22.3h-2.4v10.3H9.5V8.2h4.1v10.3h2.4V8.2H20 M20.5,7.7H20h-4.1h-0.5v0.5v9.8H14V8.2V7.7h-0.5H9.5H9v0.5
		v24.4v0.5h0.5h4.1H14v-0.5v-9.8h1.4v9.8v0.5h0.5H20h0.5v-0.5V8.2V7.7L20.5,7.7z"/>
	<path d="M28.2,7.8c3.5,0,5.3,1.8,5.3,5.3v14.6c0,3.5-1.8,5.3-5.3,5.3c-3.5,0-5.3-1.8-5.3-5.3V13.1C22.9,9.5,24.7,7.8,28.2,7.8
		 M28.2,29.1c0.8,0,1.2-0.5,1.2-1.4V13.1c0-0.9-0.4-1.4-1.2-1.4h0c-0.8,0-1.2,0.5-1.2,1.4v14.6C27,28.6,27.4,29.1,28.2,29.1
		 M28.2,7.3c-3.8,0-5.8,2-5.8,5.8v14.6c0,3.8,2,5.8,5.8,5.8c3.8,0,5.8-2,5.8-5.8V13.1C34,9.3,32,7.3,28.2,7.3L28.2,7.3z M28.2,28.6
		c-0.4,0-0.7-0.1-0.7-0.9V13.1c0-0.8,0.3-0.9,0.7-0.9c0.4,0,0.7,0.1,0.7,0.9v14.6C28.9,28.5,28.6,28.6,28.2,28.6L28.2,28.6z"/>
	<path d="M46.8,8.2v19.5c0,3.5-1.8,5.3-5.3,5.3c-3.5,0-5.3-1.8-5.3-5.3V8.2h4.1v19.5c0,0.9,0.4,1.4,1.2,1.4c0.8,0,1.2-0.5,1.2-1.4
		V8.2H46.8 M47.3,7.7h-0.5h-4.1h-0.5v0.5v19.5c0,0.8-0.3,0.9-0.7,0.9c-0.4,0-0.7-0.1-0.7-0.9V8.2V7.7h-0.5h-4.1h-0.5v0.5v19.5
		c0,3.8,2,5.8,5.8,5.8c3.8,0,5.8-2,5.8-5.8V8.2V7.7L47.3,7.7z"/>
	<path d="M54.9,7.8c3.5,0,5.3,1.8,5.3,5.3v3.5h-4.1v-3.5c0-0.9-0.4-1.4-1.2-1.4h0c-0.8,0-1.2,0.5-1.2,1.4v2.2c0,1,1,2.2,3.1,3.7
		c2.2,1.6,3.3,3.5,3.3,5.7v3c0,3.5-1.8,5.3-5.3,5.3c-3.5,0-5.3-1.8-5.3-5.3v-3.5h4.1v3.5c0,0.9,0.4,1.4,1.2,1.4
		c0.8,0,1.2-0.5,1.2-1.4V25c0-1.1-1-2.4-3.1-3.9c-2.2-1.6-3.3-3.5-3.3-5.8v-2.2C49.6,9.5,51.4,7.8,54.9,7.8 M54.9,7.3
		c-3.8,0-5.8,2-5.8,5.8v2.2c0,2.4,1.2,4.5,3.6,6.2c2.4,1.7,2.9,2.8,2.9,3.5v2.7c0,0.8-0.3,0.9-0.7,0.9c-0.4,0-0.7-0.1-0.7-0.9v-3.5
		v-0.5h-0.5h-4.1h-0.5v0.5v3.5c0,3.8,2,5.8,5.8,5.8c3.8,0,5.8-2,5.8-5.8v-3c0-2.4-1.2-4.4-3.6-6.1c-2.4-1.7-2.9-2.8-2.9-3.3v-2.2
		c0-0.8,0.3-0.9,0.7-0.9c0.4,0,0.7,0.1,0.7,0.9v3.5V17h0.5h4.1h0.5v-0.5v-3.5C60.6,9.3,58.6,7.3,54.9,7.3L54.9,7.3z"/>
	<path d="M72.6,8.2v3.9h-3.2v20.5h-4.1V12.1h-3.2V8.2H72.6 M73.1,7.7h-0.5H62.1h-0.5v0.5v3.9v0.5h0.5h2.7v20v0.5h0.5h4.1h0.5v-0.5
		v-20h2.7h0.5v-0.5V8.2V7.7L73.1,7.7z"/>
	<path d="M79.8,7.8c3.5,0,5.3,1.8,5.3,5.3v14.6c0,3.5-1.8,5.3-5.3,5.3c-3.5,0-5.3-1.8-5.3-5.3V13.1C74.6,9.5,76.3,7.8,79.8,7.8
		 M79.8,29.1c0.8,0,1.2-0.5,1.2-1.4V13.1c0-0.9-0.4-1.4-1.2-1.4h0c-0.8,0-1.2,0.5-1.2,1.4v14.6C78.6,28.6,79,29.1,79.8,29.1
		 M79.8,7.3c-3.8,0-5.8,2-5.8,5.8v14.6c0,3.8,2,5.8,5.8,5.8c3.8,0,5.8-2,5.8-5.8V13.1C85.6,9.3,83.6,7.3,79.8,7.3L79.8,7.3z
		 M79.8,28.6c-0.4,0-0.7-0.1-0.7-0.9V13.1c0-0.8,0.3-0.9,0.7-0.9c0.4,0,0.7,0.1,0.7,0.9v14.6C80.5,28.5,80.2,28.6,79.8,28.6
		L79.8,28.6z"/>
	<path d="M98.6,8.2v24.4h-4l-2.6-11.7v11.7H88V8.2h4l2.7,12v-12H98.6 M99.1,7.7h-0.5h-3.8h-0.5v0.5v7.5L92.5,8l-0.1-0.4H92h-4h-0.5
		v0.5v24.4v0.5H88h3.9h0.5v-0.5v-7.1l1.6,7.2l0.1,0.4h0.4h4h0.5v-0.5V8.2V7.7L99.1,7.7z"/>
	<path d="M123.5,8.2v24.4h-3.9V21.3l-2.4,11.2h-2.9l-2.5-11.3v11.3h-4V8.2h4l3.8,16.2l3.8-16.2H123.5 M124,7.7h-0.5h-4h-0.4L119,8
		l-3.3,14.1L112.4,8l-0.1-0.4h-0.4h-4h-0.5v0.5v24.4v0.5h0.5h4h0.5v-0.5v-6.7l1.5,6.8l0.1,0.4h0.4h2.9h0.4l0.1-0.4l1.4-6.6v6.5v0.5
		h0.5h3.9h0.5v-0.5V8.2V7.7L124,7.7z"/>
	<path d="M137.1,8.2v19.5c0,3.5-1.8,5.3-5.3,5.3c-3.5,0-5.3-1.8-5.3-5.3V8.2h4.1v19.5c0,0.9,0.4,1.4,1.2,1.4c0.8,0,1.2-0.5,1.2-1.4
		V8.2H137.1 M137.6,7.7h-0.5H133h-0.5v0.5v19.5c0,0.8-0.3,0.9-0.7,0.9c-0.4,0-0.7-0.1-0.7-0.9V8.2V7.7h-0.5h-4.1h-0.5v0.5v19.5
		c0,3.8,2,5.8,5.8,5.8c3.8,0,5.8-2,5.8-5.8V8.2V7.7L137.6,7.7z"/>
	<path d="M145.2,7.8c3.5,0,5.3,1.8,5.3,5.3v3.5h-4.1v-3.5c0-0.9-0.4-1.4-1.2-1.4h0c-0.8,0-1.2,0.5-1.2,1.4v2.2c0,1,1,2.2,3.1,3.7
		c2.2,1.6,3.3,3.5,3.3,5.7v3c0,3.5-1.8,5.3-5.3,5.3c-3.5,0-5.3-1.8-5.3-5.3v-3.5h4.1v3.5c0,0.9,0.4,1.4,1.2,1.4
		c0.8,0,1.2-0.5,1.2-1.4V25c0-1.1-1-2.4-3.1-3.9c-2.2-1.6-3.3-3.5-3.3-5.8v-2.2C139.9,9.5,141.7,7.8,145.2,7.8 M145.2,7.3
		c-3.8,0-5.8,2-5.8,5.8v2.2c0,2.4,1.2,4.5,3.6,6.2c2.4,1.7,2.9,2.8,2.9,3.5v2.7c0,0.8-0.3,0.9-0.7,0.9c-0.4,0-0.7-0.1-0.7-0.9v-3.5
		v-0.5H144h-4.1h-0.5v0.5v3.5c0,3.8,2,5.8,5.8,5.8c3.8,0,5.8-2,5.8-5.8v-3c0-2.4-1.2-4.4-3.6-6.1c-2.4-1.7-2.9-2.8-2.9-3.3v-2.2
		c0-0.8,0.3-0.9,0.7-0.9c0.4,0,0.7,0.1,0.7,0.9v3.5V17h0.5h4.1h0.5v-0.5v-3.5C150.9,9.3,148.9,7.3,145.2,7.3L145.2,7.3z"/>
	<path d="M157.5,8.2v24.4h-4.1V8.2H157.5 M158,7.7h-0.5h-4.1h-0.5v0.5v24.4v0.5h0.5h4.1h0.5v-0.5V8.2V7.7L158,7.7z"/>
	<path d="M165.7,7.8c3.5,0,5.3,1.8,5.3,5.3v3.5h-4.1v-3.5c0-0.9-0.4-1.4-1.2-1.4h0c-0.8,0-1.2,0.5-1.2,1.4v14.6
		c0,0.9,0.4,1.4,1.2,1.4c0.8,0,1.2-0.5,1.2-1.4v-3.5h4.1v3.5c0,3.5-1.8,5.3-5.3,5.3c-3.5,0-5.3-1.8-5.3-5.3V13.1
		C160.5,9.5,162.2,7.8,165.7,7.8 M165.7,7.3c-3.8,0-5.8,2-5.8,5.8v14.6c0,3.8,2,5.8,5.8,5.8c3.8,0,5.8-2,5.8-5.8v-3.5v-0.5H171h-4.1
		h-0.5v0.5v3.5c0,0.8-0.3,0.9-0.7,0.9c-0.4,0-0.7-0.1-0.7-0.9V13.1c0-0.8,0.3-0.9,0.7-0.9c0.4,0,0.7,0.1,0.7,0.9v3.5V17h0.5h4.1h0.5
		v-0.5v-3.5C171.5,9.3,169.5,7.3,165.7,7.3L165.7,7.3z"/>
	<path d="M187.8,8.2l2.5,15.7l1.2,8.8h-4.1l-0.7-5.1h-3l-0.7,5.1h-4.1l1.2-8.7l2.5-15.7H187.8 M184.2,23.6h2l-1-7.4L184.2,23.6
		 M188.2,7.7h-0.4h-5.3h-0.4l-0.1,0.4l-2.5,15.7l-1.2,8.7l-0.1,0.6h0.6h4.1h0.4l0.1-0.4l0.6-4.6h2.1l0.6,4.6l0.1,0.4h0.4h4.1h0.6
		l-0.1-0.6l-1.2-8.8l-2.5-15.7L188.2,7.7L188.2,7.7z M184.8,23.1l0.4-3.1l0.4,3.1H184.8L184.8,23.1z"/>
	<path d="M199.1,8.2c3.3,0,4.9,1.8,4.9,5.3v13.9c0,3.5-1.7,5.3-5.1,5.3h-5.4V8.2H199.1 M197.6,28.7h1.2c0.8,0,1.2-0.5,1.2-1.4V13.4
		c0-0.9-0.4-1.4-1.2-1.4h-1.2V28.7 M199.1,7.7L199.1,7.7L199.1,7.7h-5.6H193v0.5v24.4v0.5h0.5h5.4c3.7,0,5.6-2,5.6-5.8V13.4
		C204.5,9.7,202.7,7.7,199.1,7.7L199.1,7.7z M198.1,12.6h0.7c0.4,0,0.7,0.1,0.7,0.9v13.9c0,0.8-0.3,0.9-0.7,0.9h-0.7V12.6
		L198.1,12.6z"/>
	<path d="M218.4,8.2l-1.2,8.8l-2.5,15.7h-5.3L207,16.9l-1.2-8.7h4.1l2.2,19.1l2.2-19.1H218.4 M219,7.7h-0.6h-4.1h-0.4l-0.1,0.4
		l-1.7,14.8l-1.7-14.8l-0.1-0.4H210h-4.1h-0.6l0.1,0.6l1.2,8.7l2.5,15.7l0.1,0.4h0.4h5.3h0.4l0.1-0.4l2.5-15.7l1.2-8.8L219,7.7
		L219,7.7z"/>
	<path d="M224.6,8.2v24.4h-4.1V8.2H224.6 M225.1,7.7h-0.5h-4.1H220v0.5v24.4v0.5h0.5h4.1h0.5v-0.5V8.2V7.7L225.1,7.7z"/>
	<path d="M232.8,7.8c3.5,0,5.3,1.8,5.3,5.3v3.5h-4.1v-3.5c0-0.9-0.4-1.4-1.2-1.4h0c-0.8,0-1.2,0.5-1.2,1.4v2.2c0,1,1,2.2,3.1,3.7
		c2.2,1.6,3.3,3.5,3.3,5.7v3c0,3.5-1.8,5.3-5.3,5.3c-3.5,0-5.3-1.8-5.3-5.3v-3.5h4.1v3.5c0,0.9,0.4,1.4,1.2,1.4
		c0.8,0,1.2-0.5,1.2-1.4V25c0-1.1-1-2.4-3.1-3.9c-2.2-1.6-3.3-3.5-3.3-5.8v-2.2C227.6,9.5,229.3,7.8,232.8,7.8 M232.8,7.3
		c-3.8,0-5.8,2-5.8,5.8v2.2c0,2.4,1.2,4.5,3.6,6.2c2.4,1.7,2.9,2.8,2.9,3.5v2.7c0,0.8-0.3,0.9-0.7,0.9c-0.4,0-0.7-0.1-0.7-0.9v-3.5
		v-0.5h-0.5h-4.1h-0.5v0.5v3.5c0,3.8,2,5.8,5.8,5.8c3.8,0,5.8-2,5.8-5.8v-3c0-2.4-1.2-4.4-3.6-6.1c-2.4-1.7-2.9-2.8-2.9-3.3v-2.2
		c0-0.8,0.3-0.9,0.7-0.9c0.4,0,0.7,0.1,0.7,0.9v3.5V17h0.5h4.1h0.5v-0.5v-3.5C238.6,9.3,236.6,7.3,232.8,7.3L232.8,7.3z"/>
	<path d="M246.1,7.8c3.5,0,5.3,1.8,5.3,5.3v14.6c0,3.5-1.8,5.3-5.3,5.3c-3.5,0-5.3-1.8-5.3-5.3V13.1C240.8,9.5,242.6,7.8,246.1,7.8
		 M246.1,29.1c0.8,0,1.2-0.5,1.2-1.4V13.1c0-0.9-0.4-1.4-1.2-1.4h0c-0.8,0-1.2,0.5-1.2,1.4v14.6C244.9,28.6,245.3,29.1,246.1,29.1
		 M246.1,7.3c-3.8,0-5.8,2-5.8,5.8v14.6c0,3.8,2,5.8,5.8,5.8c3.8,0,5.8-2,5.8-5.8V13.1C251.8,9.3,249.8,7.3,246.1,7.3L246.1,7.3z
		 M246.1,28.6c-0.4,0-0.7-0.1-0.7-0.9V13.1c0-0.8,0.3-0.9,0.7-0.9c0.4,0,0.7,0.1,0.7,0.9v14.6C246.8,28.5,246.4,28.6,246.1,28.6
		L246.1,28.6z"/>
	<path d="M259.6,8.2c3.3,0,4.9,1.8,4.9,5.3V17c0,2.2-0.9,3.6-2.7,4.3l3.9,11.2h-4.4l-2.8-10.5h-0.2v10.5h-4.1V8.2H259.6 M258.3,18.4
		h0.5c0.4,0,0.7,0,0.9-0.1c0.5-0.2,0.8-0.6,0.8-1.3v-3.6c0-0.9-0.4-1.4-1.2-1.4h-0.9V18.4 M259.6,7.7L259.6,7.7L259.6,7.7h-5.3h-0.5
		v0.5v24.4v0.5h0.5h4.1h0.5v-0.5v-7.5l2,7.6l0.1,0.4h0.4h4.4h0.7l-0.2-0.7l-3.8-10.8c1.7-0.8,2.5-2.3,2.5-4.6v-3.6
		C265,9.7,263.1,7.7,259.6,7.7L259.6,7.7z M258.8,12.6h0.4c0.4,0,0.7,0.1,0.7,0.9V17c0,0.6-0.2,0.8-0.5,0.8c0,0-0.1,0-0.7,0V12.6
		L258.8,12.6z"/>
	<path d="M279.1,8.2L274.9,22l-0.1,0.3v10.3h-4.1V22.3l-0.1-0.3l-4.3-13.9h4.3l2.1,9.4l2.1-9.4H279.1 M279.8,7.7h-0.7h-4.3h-0.4
		l-0.1,0.4l-1.6,7.3l-1.6-7.3L271,7.7h-0.4h-4.3h-0.7l0.2,0.6l4.3,13.9l0.1,0.2v10.2v0.5h0.5h4.1h0.5v-0.5V22.4l0.1-0.2l4.3-13.9
		L279.8,7.7L279.8,7.7z"/>
	<path d="M292.4,8.2c3.3,0,4.9,1.8,4.9,5.3V17c0,1.7-0.5,2.8-1.6,3.3c1.1,0.6,1.6,1.7,1.6,3.3v3.6c0,3.5-1.7,5.3-5.1,5.3h-5.4V8.2
		H292.4 M290.8,18.4h0.8c0.4,0,0.7,0,0.9-0.1c0.5-0.2,0.8-0.6,0.8-1.3v-3.6c0-0.9-0.4-1.4-1.2-1.4h-1.2V18.4 M290.8,28.7h1.2
		c0.8,0,1.2-0.5,1.2-1.4v-3.6c0-0.7-0.3-1.1-0.8-1.3c-0.1-0.1-0.4-0.1-0.9-0.1h-0.8V28.7 M292.4,7.7L292.4,7.7L292.4,7.7h-5.6h-0.5
		v0.5v24.4v0.5h0.5h5.4c3.7,0,5.6-2,5.6-5.8v-3.6c0-1.5-0.4-2.6-1.2-3.3c0.8-0.7,1.2-1.8,1.2-3.3v-3.6
		C297.8,9.7,295.9,7.7,292.4,7.7L292.4,7.7z M291.3,12.6h0.7c0.4,0,0.7,0.1,0.7,0.9V17c0,0.6-0.2,0.8-0.5,0.8c0,0-0.1,0-0.7,0h-0.3
		V12.6L291.3,12.6z M291.3,22.8h0.3c0.5,0,0.7,0,0.7,0c0.2,0.1,0.5,0.3,0.5,0.8v3.6c0,0.8-0.3,0.9-0.7,0.9h-0.7V22.8L291.3,22.8z"/>
	<path d="M305.1,7.8c3.5,0,5.3,1.8,5.3,5.3v14.6c0,3.5-1.8,5.3-5.3,5.3c-3.5,0-5.3-1.8-5.3-5.3V13.1C299.8,9.5,301.6,7.8,305.1,7.8
		 M305.1,29.1c0.8,0,1.2-0.5,1.2-1.4V13.1c0-0.9-0.4-1.4-1.2-1.4h0c-0.8,0-1.2,0.5-1.2,1.4v14.6C303.9,28.6,304.3,29.1,305.1,29.1
		 M305.1,7.3c-3.8,0-5.8,2-5.8,5.8v14.6c0,3.8,2,5.8,5.8,5.8c3.8,0,5.8-2,5.8-5.8V13.1C310.9,9.3,308.9,7.3,305.1,7.3L305.1,7.3z
		 M305.1,28.6c-0.4,0-0.7-0.1-0.7-0.9V13.1c0-0.8,0.3-0.9,0.7-0.9c0.4,0,0.7,0.1,0.7,0.9v14.6C305.8,28.5,305.5,28.6,305.1,28.6
		L305.1,28.6z"/>
	<path d="M321.1,8.2l2.5,15.7l1.2,8.8h-4.1l-0.7-5.1h-3l-0.7,5.1h-4.1l1.2-8.7l2.5-15.7H321.1 M317.5,23.6h2l-1-7.4L317.5,23.6
		 M321.5,7.7h-0.4h-5.3h-0.4l-0.1,0.4l-2.5,15.7l-1.2,8.7l-0.1,0.6h0.6h4.1h0.4l0.1-0.4l0.6-4.6h2.1l0.6,4.6l0.1,0.4h0.4h4.1h0.6
		l-0.1-0.6l-1.2-8.8l-2.5-15.7L321.5,7.7L321.5,7.7z M318.1,23.1l0.4-3.1l0.4,3.1H318.1L318.1,23.1z"/>
	<path d="M332.1,8.2c3.3,0,4.9,1.8,4.9,5.3V17c0,2.2-0.9,3.6-2.7,4.3l3.9,11.2h-4.4l-2.8-10.5h-0.2v10.5h-4.1V8.2H332.1 M330.9,18.4
		h0.5c0.4,0,0.7,0,0.9-0.1c0.5-0.2,0.8-0.6,0.8-1.3v-3.6c0-0.9-0.4-1.4-1.2-1.4h-0.9V18.4 M332.1,7.7L332.1,7.7L332.1,7.7h-5.3h-0.5
		v0.5v24.4v0.5h0.5h4.1h0.5v-0.5v-7.5l2,7.6l0.1,0.4h0.4h4.4h0.7l-0.2-0.7L335,21.6c1.7-0.8,2.5-2.3,2.5-4.6v-3.6
		C337.5,9.7,335.7,7.7,332.1,7.7L332.1,7.7z M331.4,12.6h0.4c0.4,0,0.7,0.1,0.7,0.9V17c0,0.6-0.2,0.8-0.5,0.8c0,0-0.1,0-0.7,0V12.6
		L331.4,12.6z"/>
	<path d="M345.9,8.2c3.3,0,4.9,1.8,4.9,5.3v13.9c0,3.5-1.7,5.3-5.1,5.3h-5.4V8.2H345.9 M344.3,28.7h1.2c0.8,0,1.2-0.5,1.2-1.4V13.4
		c0-0.9-0.4-1.4-1.2-1.4h-1.2V28.7 M345.9,7.7L345.9,7.7L345.9,7.7h-5.6h-0.5v0.5v24.4v0.5h0.5h5.4c3.7,0,5.6-2,5.6-5.8V13.4
		C351.3,9.7,349.4,7.7,345.9,7.7L345.9,7.7z M344.8,12.6h0.7c0.4,0,0.7,0.1,0.7,0.9v13.9c0,0.8-0.3,0.9-0.7,0.9h-0.7V12.6
		L344.8,12.6z"/>
</g>
</svg>
