<?xml version="1.0" encoding="utf-8"?>
<!-- Generator: Adobe Illustrator 30.1.0, SVG Export Plug-In . SVG Version: 9.03 Build 0)  -->
<svg version="1.1" baseProfile="basic" id="Layer_1"
	 xmlns="http://www.w3.org/2000/svg" xmlns:xlink="http://www.w3.org/1999/xlink" x="0px" y="0px" width="360px" height="360px"
	 viewBox="0 0 360 360" xml:space="preserve">
<style type="text/css">
	.st0{fill:#FFFFFF;}
</style>
<g>
	<path class="st0" d="M30.9,89.4h1v-1V60.1h4.9v28.3v1h1h11.6h1v-1V18.6v-1h-1H37.8h-1v1v28.3h-4.9V18.6v-1h-1H19.3h-1v1v69.8v1h1
		H30.9z M19.3,18.6h11.6v29.3h6.9V18.6h11.6v69.8H37.8V59.1h-6.9v29.3H19.3V18.6z"/>
	<path class="st0" d="M72.8,90.6c10.7,0,16.1-5.4,16.1-16.1v-42c0-10.6-5.4-16-16.1-16c-10.6,0-16,5.4-16,16.1v41.9
		C56.8,85.2,62.2,90.6,72.8,90.6z M57.8,32.5c0-10,5-15,15-15s15.1,5,15.1,15.1v41.9c0,10-5,15.1-15.1,15.1c-10,0-15-5-15-15.1V32.5
		z"/>
	<path class="st0" d="M72.8,78.4c2.3,0,3.5-1.3,3.5-3.9v-42c0-2.6-1.1-3.9-3.4-3.9h-0.1c-2.3,0-3.4,1.3-3.4,3.9v41.9
		C69.4,77,70.5,78.4,72.8,78.4z M70.4,32.5c0-2.6,1.1-2.9,2.4-2.9h0.1c1.3,0,2.4,0.4,2.4,2.9v41.9c0,2.6-1.2,3-2.5,3
		c-1.3,0-2.4-0.4-2.4-2.9V32.5z"/>
	<path class="st0" d="M110.9,90.6c10.7,0,16.1-5.4,16.1-16.1V18.6v-1h0h-1h-11.6h-1v1v55.9c0,2.6-1.2,2.9-2.5,2.9s-2.4-0.4-2.4-2.9
		V18.6v-1h-1H95.9h-1v1v55.9C94.9,85.2,100.3,90.6,110.9,90.6z M95.9,18.6h11.6v55.9c0,2.6,1.1,3.9,3.4,3.9s3.5-1.3,3.5-3.9V18.6
		H126v55.9c0,10-5,15.1-15.1,15.1c-10,0-15-5-15-15.1V18.6z"/>
	<path class="st0" d="M149.2,90.5c10.6,0,16-5.4,16-16.1v-8.7c0-6.7-3.4-12.4-10-17.1c-7-5.1-8.5-8.2-8.5-9.9v-6.2
		c0-2.6,1.1-2.9,2.4-2.9h0.1c1.3,0,2.4,0.4,2.4,2.9v9.9v1h1h11.6h1v-1v-9.9c-0.1-10.6-5.5-16-16.1-16c-10.6,0-16,5.4-16,16.1V39
		c0,6.8,3.4,12.7,10,17.4c5.6,4,8.5,7.5,8.5,10.2v7.8c0,2.6-1.2,2.9-2.4,2.9c-1.3,0-2.5-0.4-2.5-2.9v-9.9v-1h-1h-11.6h-1v1v9.9
		C133.1,85.1,138.5,90.5,149.2,90.5z M134.1,64.6h11.6v9.9c0,2.6,1.2,3.9,3.5,3.9c2.3,0,3.4-1.3,3.4-3.9v-7.8c0-3.1-3-6.8-8.9-11.1
		c-6.4-4.5-9.6-10.1-9.6-16.6v-6.4c-0.1-10.1,5-15.1,15-15.1s15.1,5,15.1,15.1v9.9h-11.6v-9.9c0-2.6-1.1-3.9-3.4-3.9h-0.1
		c-2.3,0-3.4,1.3-3.4,3.9v6.2c0,2.8,3,6.4,8.9,10.7c6.4,4.5,9.6,10,9.6,16.3v8.7c0,10.1-5,15.1-15,15.1s-15.1-5.1-15.1-15.1V64.6z"
		/>
	<path class="st0" d="M177.9,30.7v57.7v1h1h11.7h1v-1V30.7h8.2h1v-1V18.6v-1h-1h-30.1h-1v1v11.1v1h1H177.9z M169.8,18.6h30v11.1
		h-9.2v58.7H179V29.7h-9.2V18.6z"/>
	<path class="st0" d="M220.5,78.4c2.3,0,3.5-1.3,3.5-3.9v-42c0-2.6-1.1-3.9-3.4-3.9h-0.1c-2.3,0-3.4,1.3-3.4,3.9v41.9
		C217,77,218.2,78.4,220.5,78.4z M218.1,32.5c0-2.6,1.1-2.9,2.4-2.9h0.1c1.3,0,2.4,0.4,2.4,2.9v41.9c-0.1,2.6-1.3,3-2.5,3
		c-1.3,0-2.4-0.4-2.4-2.9V32.5z"/>
	<path class="st0" d="M220.5,90.6c10.7,0,16.1-5.4,16.1-16.1v-42c-0.1-10.6-5.5-16-16.1-16c-10.6,0-16,5.4-16,16.1v41.9
		C204.5,85.2,209.9,90.6,220.5,90.6z M205.5,32.5c-0.1-10,4.9-15,15-15c10,0,15.1,5,15.1,15.1v41.9c0,10-5,15.1-15.1,15.1
		c-10,0-15-5-15-15.1V32.5z"/>
	<path class="st0" d="M255,89.4h1v-1V64.1l5.4,24.5l0.2,0.8h0.8h11.5h1v-1V18.6v-1H274h-10.9h-1v1V44l-5.8-25.6l-0.2-0.8h-0.8h-11.5
		h-1v1v69.8v1h1H255z M243.9,18.6h11.5l7.7,34.4V18.6H274v69.8h-11.5l-7.4-33.5v33.5h-11.2V18.6z"/>
	<path class="st0" d="M30.6,175.1h1v-1V151l5.1,23.3l0.2,0.8h0.8h8.2h0.8l0.2-0.8l4.9-22.8v22.6v1h1H64h1v-1v-69.8v-1h-0.1h-1H52.4
		h-0.8l-0.2,0.8l-9.8,42.1l-9.8-42.1l-0.2-0.8h-0.8H19.3h-1v1v69.8v1h1H30.6z M19.3,104.3h11.5l10.9,46.3l10.7-46.3h11.5v69.8H52.7
		V142l-6.9,32.1h-8.2l-7-32.3v32.3H19.3V104.3z"/>
	<path class="st0" d="M85.2,160.1v-55.9v-1h-1H72.6h-1v1v55.9c0,10.7,5.4,16.1,16,16.1c10.7,0,16.1-5.4,16.1-16.1v-55.9v-0.9h-1
		H91.1h-1v1v55.8c0,2.6-1.2,2.9-2.5,2.9S85.2,162.6,85.2,160.1z M91.1,160.1v-55.9h11.6v0.1v55.8c0,10-5,15.1-15.1,15.1
		c-10,0-15-5-15-15.1v-55.9h11.6v55.9c0,2.6,1.1,3.9,3.4,3.9S91.1,162.7,91.1,160.1z"/>
	<path class="st0" d="M123.4,149.2h-1h-11.6h-1v1v9.9c0,10.7,5.4,16.1,16.1,16.1c10.6,0,16-5.4,16-16.1v-8.7c0-6.7-3.4-12.4-10-17.1
		c-7-5.1-8.5-8.2-8.5-9.9v-6.2c0-2.6,1.1-2.9,2.4-2.9h0.1c1.3,0,2.4,0.4,2.4,2.9v9.9v1h1h11.6h1v-1v-9.9c-0.1-10.6-5.5-16-16.1-16
		c-10.6,0-16,5.4-16,16.1v6.4c0,6.8,3.4,12.7,10,17.4c5.6,4,8.5,7.5,8.5,10.2v7.8c0,2.6-1.2,2.9-2.4,2.9c-1.3,0-2.5-0.4-2.5-2.9
		v-9.9V149.2z M125.9,164.1c2.3,0,3.4-1.3,3.4-3.9v-7.8c0-3.1-3-6.8-8.9-11.1c-6.4-4.5-9.6-10.1-9.6-16.6v-6.4
		c-0.1-10.1,4.9-15.1,15-15.1c10,0,15.1,5,15.1,15.1v9.9h-11.6v-9.9c0-2.6-1.1-3.9-3.4-3.9h-0.1c-2.3,0-3.4,1.3-3.4,3.9v6.2
		c0,2.8,3,6.4,8.9,10.7c6.4,4.5,9.6,10,9.6,16.3v8.7c0,10.1-5,15.1-15,15.1s-15.1-5.1-15.1-15.1v-9.9h11.6v9.9
		C122.4,162.8,123.6,164.1,125.9,164.1z"/>
	<path class="st0" d="M149.4,103.3h-1v1v69.8v1h1H161h1v-1v-69.8v-1h-1H149.4z M161,174.1h-11.6v-69.8H161V174.1z"/>
	<path class="st0" d="M184.6,176.2c10.7,0,16.1-5.4,16.1-16.1v-9.9v-1h-1h-11.6h-1v1v9.9c0,2.6-1.2,2.9-2.5,2.9s-2.4-0.4-2.4-2.9
		v-41.9c0-2.6,1.1-2.9,2.4-2.9h0.1c1.3,0,2.4,0.4,2.4,2.9v9.9v1h1h11.6h1v-1v-9.9c0-10.6-5.4-16-16.1-16c-10.6,0-16,5.4-16,16.1
		v41.8C168.6,170.8,174,176.2,184.6,176.2z M169.6,118.2c0-10,5-15,15-15s15.1,5,15.1,15.1v9.9h-11.6v-9.9c0-2.6-1.1-3.9-3.4-3.9
		h-0.1c-2.3,0-3.4,1.3-3.4,3.9v41.8c0,2.6,1.1,3.9,3.4,3.9s3.5-1.3,3.5-3.9v-9.9h11.6v9.9c0,10-5,15.1-15.1,15.1c-10,0-15-5-15-15.1
		V118.2z"/>
	<path class="st0" d="M31.3,234.2h5.6l-2.8-21.1L31.3,234.2z M32.4,233.2l1.6-12.5l1.7,12.5H32.4z"/>
	<path class="st0" d="M49.6,234.7l-7-44.8l-0.1-0.9h-0.9h-15h-0.9l-0.1,0.8l-7.1,44.9l-3.3,25l-0.2,1.1h1.1h11.7h0.9l0.1-0.9
		l1.8-13.6h6.8l1.8,13.6l0.1,0.9h0.9h11.7H53l-0.1-1.1L49.6,234.7z M40.3,259.8l-1.9-14.5h-8.5l-2,14.5H16.2l3.3-24.9l7.1-44.9h15
		l7,44.8l3.3,25H40.3z"/>
	<path class="st0" d="M74,189H57.9h-1v1v69.8v1h1h15.5c10.4,0,15.6-5.4,15.6-16.1v-39.6C89,194.5,84,189.1,74,189z M88,244.8
		c0,10-4.9,15-14.6,15.1H57.9v-69.8H74V190c9.3,0,14,5.1,14,15.1V244.8z"/>
	<path class="st0" d="M73,201.1h-3.5v47.6H73c2.3,0,3.4-1.3,3.4-3.9v-39.7C76.4,202.4,75.3,201.1,73,201.1z M75.4,244.9
		c0,2.6-1.2,2.9-2.4,2.9h-2.5v-45.6H73c1.3,0,2.4,0.4,2.4,3V244.9z"/>
	<path class="st0" d="M117.4,189h-0.9l-0.1,0.9l-5.2,46l-5.2-46l-0.1-0.9H105H93.3h-1.1l0.2,1.1l3.3,25l7.1,44.9l0.1,0.8h0.9h15.1
		h0.9l0.1-0.8l7-44.8l3.3-25.1V189h-1.1H117.4z M125.8,215l-7,44.8h-15.1L96.6,215l-3.3-25H105l6.2,54.7l6.2-54.7h11.7L125.8,215z"
		/>
	<path class="st0" d="M146.8,260.8h1v-1V190v-1h-1h-11.6h-1v1v69.8v1h1H146.8z M135.2,190h11.6v69.8h-11.6V190z"/>
	<path class="st0" d="M186.5,245.8v-8.7c0-6.7-3.4-12.4-10-17.1c-7-5.1-8.5-8.2-8.5-9.9v-6.2c0-2.6,1.1-2.9,2.4-2.9h0.1
		c1.3,0,2.4,0.4,2.4,2.9v9.9v1h1h11.6h1v-1v-9.9c0-10.5-5.4-16-16.1-16c-10.6,0-16,5.4-16,16.1v6.4c0,6.8,3.4,12.7,10,17.4
		c5.6,4,8.5,7.5,8.5,10.2v7.8c0,2.6-1.2,2.9-2.4,2.9c-1.3,0-2.5-0.4-2.5-2.9v-9.9v-1h-1h-11.6h-1v1v9.9c0,10.7,5.4,16.1,16.1,16.1
		C181.1,261.9,186.5,256.5,186.5,245.8z M170.5,261c-10,0-15.1-5.1-15.1-15.1V236H167v9.9c0,2.6,1.2,3.9,3.5,3.9
		c2.3,0,3.4-1.3,3.4-3.9v-7.8c0-3.1-3-6.8-8.9-11.1c-6.4-4.5-9.6-10.1-9.6-16.6V204c0-10,5-15.1,15-15.1s15.1,5,15.1,15.1v9.9h-11.6
		V204c0-2.6-1.1-3.9-3.4-3.9h-0.1c-2.3,0-3.4,1.3-3.4,3.9v6.2c0,2.8,3,6.4,8.9,10.7c6.4,4.5,9.6,10,9.6,16.3v8.7
		C185.5,256,180.5,261,170.5,261z"/>
	<path class="st0" d="M208.3,200.1h-0.1c-2.3,0-3.4,1.3-3.4,3.9v41.9c0,2.6,1.1,3.9,3.4,3.9c2.3,0,3.5-1.3,3.5-3.9V204
		C211.7,201.4,210.6,200.1,208.3,200.1z M210.7,245.9c-0.1,2.6-1.3,2.9-2.5,2.9c-1.3,0-2.4-0.4-2.4-2.9V204c0-2.6,1.1-2.9,2.4-2.9
		h0.1c1.3,0,2.4,0.4,2.4,2.9V245.9z"/>
	<path class="st0" d="M208.2,187.9c-10.6,0-16,5.4-16,16.1v41.9c0,10.7,5.4,16.1,16,16.1c10.7,0,16.1-5.4,16.1-16.1V204
		C224.2,193.4,218.8,187.9,208.2,187.9z M223.3,245.9c0,10-5,15.1-15.1,15.1c-10,0-15-5-15-15.1V204c-0.1-10,5-15.1,15-15.1
		s15.1,5,15.1,15.1V245.9z"/>
	<path class="st0" d="M254.5,228.2c4.9-2.2,7.3-6.5,7.3-12.8v-10.3c0.1-10.6-5-16-14.9-16.1h-15.3h-1v1v69.8v1h1h11.6h1v-1v-24.7
		l6.6,25l0.2,0.7h0.8h12.7h1.4l-0.5-1.3L254.5,228.2z M251.8,259.9l-8-30h-0.6v30h-11.6v-69.8h15.3V190c9.3,0,14,5.1,14,15.1v10.3
		c0,6.3-2.5,10.4-7.6,12.3l11.2,32.2H251.8z"/>
	<path class="st0" d="M245.8,201.1h-2.6v18.3h1.4c1.3,0,2.1-0.1,2.4-0.2c1.5-0.6,2.2-1.8,2.2-3.7v-10.4
		C249.2,202.4,248.1,201.1,245.8,201.1z M248.2,215.5c0,2-0.9,2.5-1.6,2.8c0,0-0.5,0.1-2.1,0.1h-0.4v-16.2h0.1h1.6
		c1.3,0,2.4,0.4,2.4,3V215.5z"/>
	<path class="st0" d="M302.7,189h-12.3h-0.8l-0.2,0.8l-5.1,22.6l-5.1-22.6L279,189h-0.8h-12.3h-1.4l0.4,1.3l12.2,39.7l0.2,0.6v29.2
		v1h1h11.6h1v-1v-29.2l0.2-0.6l12.3-39.7l0.7-1.3H302.7z M302.8,190l-12.2,39.7l-0.2,0.7v29.4h-11.8v-29.4l-0.3-0.8l-12.2-39.7h12.3
		l6,27l6-27h12.4V190z"/>
	<path class="st0" d="M35.4,274.8H19.3h-1v1v69.8v1h1h15.5c10.4,0,15.6-5.4,15.6-16.1v-10.3c0-4.4-1.3-7.6-3.8-9.5
		c2.5-1.9,3.8-5.1,3.8-9.5v-10.3C50.4,280.2,45.4,274.8,35.4,274.8z M49.4,301.2c0,4.7-1.6,7.9-4.7,9.5c3.1,1.6,4.7,4.8,4.7,9.5
		v10.3c0,10-4.9,15-14.6,15.1H19.3v-69.8h16.1c9.3,0,14,5.1,14,15.1V301.2z"/>
	<path class="st0" d="M33.1,305.1c1.3,0,2.1-0.1,2.4-0.2c1.5-0.6,2.2-1.8,2.2-3.7v-10.3c0-2.7-1.1-4-3.4-4h-3.5v18.2h0.1H33.1z
		 M31.9,287.9h2.5c1.3,0,2.4,0.4,2.4,3v10.3c0,2-0.9,2.5-1.6,2.8c0,0-0.5,0.1-2.1,0.1h-1.2V287.9z"/>
	<path class="st0" d="M35.6,316.6c-0.4-0.2-1.2-0.2-2.4-0.2H31v18.1h3.4c2.3,0,3.4-1.3,3.4-3.9v-10.3
		C37.8,318.4,37.1,317.2,35.6,316.6z M36.8,330.6c0,2.6-1.2,2.9-2.4,2.9h-2.5v-16.2h1.2c1.6,0,2,0.1,2.1,0.2
		c0.7,0.3,1.6,0.8,1.6,2.8V330.6z"/>
	<path class="st0" d="M71.8,273.7c-10.6,0-16,5.4-16,16.1v41.9c0,10.7,5.4,16.1,16,16.1c10.7,0,16.1-5.4,16.1-16.1v-41.9
		C87.8,279.1,82.4,273.7,71.8,273.7z M86.9,331.7c0,10-5,15.1-15.1,15.1c-10,0-15-5-15-15.1v-41.9c-0.1-10.1,4.9-15.1,15-15.1
		c10,0,15.1,5,15.1,15.1V331.7z"/>
	<path class="st0" d="M71.9,285.9L71.9,285.9c-2.4,0-3.5,1.3-3.5,3.9v41.9c0,2.5,1.1,3.9,3.4,3.9s3.5-1.3,3.5-3.9v-41.9
		C75.3,287.2,74.2,285.9,71.9,285.9z M74.3,331.7c-0.1,2.5-1.3,2.9-2.5,2.9c-1.3,0-2.4-0.4-2.4-2.9v-41.9c0-2.6,1.1-2.9,2.4-2.9h0.1
		c1.3,0,2.4,0.4,2.4,2.9V331.7z"/>
	<path class="st0" d="M107.2,319.9h5.6l-2.8-21.1L107.2,319.9z M108.3,318.9l1.6-12.5l1.7,12.5H108.3z"/>
	<path class="st0" d="M125.6,320.5l-7.1-44.8l-0.1-0.9h-0.9h-15.1h-0.8l-0.1,0.8l-7.1,44.9l-3.3,25l-0.2,1.1H92h11.7h0.9l0.1-0.9
		l1.9-13.6h6.8l1.8,13.6l0.1,0.9h0.9h11.7h1.1l-0.1-1.1L125.6,320.5z M116.1,345.6l-1.9-14.5h-8.5l-2,14.5H92.1l3.3-24.9l7.1-44.9
		h15l7,44.8l3.3,25H116.1z"/>
	<path class="st0" d="M156.8,314c4.9-2.2,7.3-6.5,7.3-12.8v-10.3c0-10.7-5.1-16.1-15-16.1h-15.2h-1v1v69.8v1h1h11.6h1v-1v-24.7
		l6.6,25l0.2,0.7h0.8h12.7h1.4l-0.5-1.3L156.8,314z M154,345.7l-8-30h-0.6v30h-11.6v-69.8h15.3v-0.1c9.3,0,14,5.1,14,15.1v10.3
		c0,6.3-2.5,10.4-7.6,12.3l11.2,32.2H154z"/>
	<path class="st0" d="M148,286.9h-2.6v18.2h1.4c1.3,0,2.1-0.1,2.4-0.2c1.5-0.6,2.2-1.8,2.2-3.7v-10.3
		C151.4,288.2,150.3,286.9,148,286.9z M150.4,301.2c0,2-0.9,2.5-1.6,2.8c0,0-0.5,0.1-2.1,0.1h-0.4v-16.2h0.1h1.6
		c1.3,0,2.4,0.4,2.4,3V301.2z"/>
	<path class="st0" d="M187.4,286.9h-3.5v47.6h3.5c2.3,0,3.4-1.3,3.4-3.9v-39.7C190.8,288.2,189.7,286.9,187.4,286.9z M189.8,330.6
		c0,2.6-1.2,2.9-2.4,2.9h-2.5v-45.6h2.5c1.3,0,2.4,0.4,2.4,3V330.6z"/>
	<path class="st0" d="M188.4,274.8h-16.1h-1v1v69.8v1h1h15.5c10.4,0,15.6-5.4,15.6-16.1v-39.7C203.4,280.2,198.3,274.8,188.4,274.8z
		 M202.4,330.6c0,10-4.9,15-14.6,15.1h-15.5v-69.8h16.1v-0.1c9.3,0,14,5.1,14,15.1V330.6z"/>
</g>
</svg>
